<mxfile host="app.diagrams.net" modified="2024-06-10T12:03:10.653Z" agent="Mozilla/5.0 (Windows NT 10.0; Win64; x64) AppleWebKit/537.36 (KHTML, like Gecko) Chrome/125.0.0.0 Safari/537.36 Edg/125.0.0.0" version="24.5.2" etag="eJZxwG6BJf8SfAYF0t7A" type="github">
  <diagram name="PÃ¡gina-1" id="yQBHuRPwRmgqhJ6bjqQs">
    <mxGraphModel>
      <root>
        <mxCell id="0" />
        <mxCell id="1" parent="0" />
      </root>
    </mxGraphModel>
  </diagram>
</mxfile>
